<svg xmlns="http://www.w3.org/2000/svg" viewBox="0 0 1024 1024"><defs><clipPath id="r"><rect width="1024" height="1024" rx="230" ry="230"/></clipPath></defs><g clip-path="url(#r)"><rect width="1024" height="1024" fill="#0b0d12"/><rect x="0" y="0" width="192" height="192" fill="#7c3aed"/><rect x="208" y="0" width="192" height="192" fill="#8b5cf6"/><rect x="416" y="0" width="192" height="192" fill="#a78bfa"/><rect x="624" y="0" width="192" height="192" fill="#a78bfa"/><rect x="832" y="0" width="192" height="192" fill="#c4b5fd"/><rect x="0" y="208" width="192" height="192" fill="#4c1d95"/><rect x="208" y="208" width="192" height="192" fill="#7c3aed"/><rect x="416" y="208" width="192" height="192" fill="#8b5cf6"/><rect x="624" y="208" width="192" height="192" fill="#a78bfa"/><rect x="832" y="208" width="192" height="192" fill="#a78bfa"/><rect x="0" y="416" width="192" height="192" fill="#4c1d95"/><rect x="208" y="416" width="192" height="192" fill="#4c1d95"/><rect x="416" y="416" width="192" height="192" fill="#7c3aed"/><rect x="624" y="416" width="192" height="192" fill="#8b5cf6"/><rect x="832" y="416" width="192" height="192" fill="#a78bfa"/><rect x="0" y="624" width="192" height="192" fill="#2a1248"/><rect x="208" y="624" width="192" height="192" fill="#4c1d95"/><rect x="416" y="624" width="192" height="192" fill="#4c1d95"/><rect x="624" y="624" width="192" height="192" fill="#7c3aed"/><rect x="832" y="624" width="192" height="192" fill="#8b5cf6"/><rect x="0" y="832" width="192" height="192" fill="#14171d"/><rect x="208" y="832" width="192" height="192" fill="#2a1248"/><rect x="416" y="832" width="192" height="192" fill="#4c1d95"/><rect x="624" y="832" width="192" height="192" fill="#4c1d95"/><rect x="832" y="832" width="192" height="192" fill="#7c3aed"/></g></svg>